<?xml version="1.0" encoding="UTF-8" standalone="no"?>
<!-- Created with Inkscape (http://www.inkscape.org/) -->

<svg
   xmlns:dc="http://purl.org/dc/elements/1.1/"
   xmlns:cc="http://creativecommons.org/ns#"
   xmlns:rdf="http://www.w3.org/1999/02/22-rdf-syntax-ns#"
   xmlns:svg="http://www.w3.org/2000/svg"
   xmlns="http://www.w3.org/2000/svg"
   xmlns:xlink="http://www.w3.org/1999/xlink"
   xmlns:sodipodi="http://sodipodi.sourceforge.net/DTD/sodipodi-0.dtd"
   xmlns:inkscape="http://www.inkscape.org/namespaces/inkscape"
   id="svg2"
   version="1.1"
   inkscape:version="0.92.3 (2405546, 2018-03-11)"
   width="102.77146mm"
   height="63.460407mm"
   viewBox="0 0 364.15085 224.85971"
   sodipodi:docname="Logo.svg">
  <metadata
     id="metadata8">
    <rdf:RDF>
      <cc:Work
         rdf:about="">
        <dc:format>image/svg+xml</dc:format>
        <dc:type
           rdf:resource="http://purl.org/dc/dcmitype/StillImage" />
        <dc:title></dc:title>
      </cc:Work>
    </rdf:RDF>
  </metadata>
  <defs
     id="defs6">
    <linearGradient
       id="linearGradient2516"
       inkscape:collect="always">
      <stop
         style="stop-color:#233555;stop-opacity:1"
         offset="0"
         id="stop2510" />
      <stop
         id="stop2512"
         offset="0.89883059"
         style="stop-color:#3665b7;stop-opacity:0.6096257" />
      <stop
         style="stop-color:#233555;stop-opacity:0.04545455"
         offset="1"
         id="stop2514" />
    </linearGradient>
    <linearGradient
       inkscape:collect="always"
       id="linearGradient2496">
      <stop
         style="stop-color:#233555;stop-opacity:1"
         offset="0"
         id="stop2494" />
      <stop
         style="stop-color:#4264a0;stop-opacity:0.87433153"
         offset="1"
         id="stop2492" />
    </linearGradient>
    <linearGradient
       inkscape:collect="always"
       id="linearGradient1029">
      <stop
         id="stop1025"
         offset="0"
         style="stop-color:#233555;stop-opacity:1" />
      <stop
         style="stop-color:#25385a;stop-opacity:0.34901961;"
         offset="0.89883059"
         id="stop2487" />
      <stop
         id="stop1027"
         offset="1"
         style="stop-color:#233555;stop-opacity:0.04545455" />
    </linearGradient>
    <linearGradient
       id="linearGradient4430-7-9"
       inkscape:collect="always">
      <stop
         style="stop-color:#4264a0;stop-opacity:1"
         offset="0"
         id="stop4434" />
      <stop
         style="stop-color:#233555;stop-opacity:1"
         offset="1"
         id="stop4432" />
    </linearGradient>
    <linearGradient
       inkscape:collect="always"
       xlink:href="#linearGradient4430-7-9"
       id="linearGradient4471"
       x1="4.9067202"
       y1="35.110413"
       x2="63.677837"
       y2="35.110413"
       gradientUnits="userSpaceOnUse" />
    <linearGradient
       inkscape:collect="always"
       xlink:href="#linearGradient4430-7-9"
       id="linearGradient4486"
       x1="8.6534147"
       y1="23.538654"
       x2="40.971268"
       y2="23.097153"
       gradientUnits="userSpaceOnUse" />
    <linearGradient
       inkscape:collect="always"
       xlink:href="#linearGradient4430-7-9"
       id="linearGradient4280"
       x1="4.9067202"
       y1="35.110413"
       x2="63.677837"
       y2="35.110413"
       gradientUnits="userSpaceOnUse"
       gradientTransform="translate(56)" />
    <linearGradient
       inkscape:collect="always"
       xlink:href="#linearGradient4430-7-9"
       id="linearGradient4295"
       x1="8.6534147"
       y1="23.538654"
       x2="40.971268"
       y2="23.097153"
       gradientUnits="userSpaceOnUse"
       gradientTransform="translate(56)" />
    <linearGradient
       inkscape:collect="always"
       xlink:href="#linearGradient2496"
       id="linearGradient952"
       gradientUnits="userSpaceOnUse"
       x1="3246.0305"
       y1="8206.3945"
       x2="6546.6749"
       y2="8236.7418" />
    <linearGradient
       inkscape:collect="always"
       xlink:href="#linearGradient1029"
       id="linearGradient954"
       gradientUnits="userSpaceOnUse"
       x1="-51.300877"
       y1="-12.057004"
       x2="255.74338"
       y2="-12.057004" />
    <linearGradient
       inkscape:collect="always"
       xlink:href="#linearGradient2516"
       id="linearGradient956"
       gradientUnits="userSpaceOnUse"
       x1="4509"
       y1="2481"
       x2="4371"
       y2="11439" />
    <linearGradient
       inkscape:collect="always"
       xlink:href="#linearGradient4430-7-9"
       id="linearGradient958"
       gradientUnits="userSpaceOnUse"
       x1="-51.300877"
       y1="-12.057004"
       x2="255.74338"
       y2="-12.057004" />
    <linearGradient
       inkscape:collect="always"
       xlink:href="#linearGradient4430-7-9"
       id="linearGradient960"
       gradientUnits="userSpaceOnUse"
       x1="-51.300877"
       y1="-12.057004"
       x2="255.74338"
       y2="-12.057004" />
    <linearGradient
       inkscape:collect="always"
       xlink:href="#linearGradient4430-7-9"
       id="linearGradient962"
       gradientUnits="userSpaceOnUse"
       x1="-51.300877"
       y1="-12.057004"
       x2="255.74338"
       y2="-12.057004" />
    <linearGradient
       inkscape:collect="always"
       xlink:href="#linearGradient4430-7-9"
       id="linearGradient964"
       gradientUnits="userSpaceOnUse"
       x1="-51.300877"
       y1="-12.057004"
       x2="255.74338"
       y2="-12.057004" />
    <linearGradient
       inkscape:collect="always"
       xlink:href="#linearGradient4430-7-9"
       id="linearGradient966"
       gradientUnits="userSpaceOnUse"
       x1="-51.300877"
       y1="-12.057004"
       x2="255.74338"
       y2="-12.057004" />
    <linearGradient
       inkscape:collect="always"
       xlink:href="#linearGradient4430-7-9"
       id="linearGradient968"
       gradientUnits="userSpaceOnUse"
       x1="-51.300877"
       y1="-12.057004"
       x2="255.74338"
       y2="-12.057004" />
    <linearGradient
       inkscape:collect="always"
       xlink:href="#linearGradient4430-7-9"
       id="linearGradient970"
       gradientUnits="userSpaceOnUse"
       x1="-51.300877"
       y1="-12.057004"
       x2="255.74338"
       y2="-12.057004" />
    <linearGradient
       inkscape:collect="always"
       xlink:href="#linearGradient4430-7-9"
       id="linearGradient972"
       gradientUnits="userSpaceOnUse"
       x1="-51.300877"
       y1="-12.057004"
       x2="255.74338"
       y2="-12.057004" />
    <linearGradient
       inkscape:collect="always"
       xlink:href="#linearGradient4430-7-9"
       id="linearGradient974"
       gradientUnits="userSpaceOnUse"
       x1="-51.300877"
       y1="-12.057004"
       x2="255.74338"
       y2="-12.057004" />
    <linearGradient
       inkscape:collect="always"
       xlink:href="#linearGradient4430-7-9"
       id="linearGradient976"
       gradientUnits="userSpaceOnUse"
       x1="-51.300877"
       y1="-12.057004"
       x2="255.74338"
       y2="-12.057004" />
    <linearGradient
       inkscape:collect="always"
       xlink:href="#linearGradient4430-7-9"
       id="linearGradient978"
       gradientUnits="userSpaceOnUse"
       x1="-51.300877"
       y1="-12.057004"
       x2="255.74338"
       y2="-12.057004" />
    <linearGradient
       inkscape:collect="always"
       xlink:href="#linearGradient4430-7-9"
       id="linearGradient980"
       gradientUnits="userSpaceOnUse"
       x1="-51.300877"
       y1="-12.057004"
       x2="255.74338"
       y2="-12.057004" />
    <linearGradient
       inkscape:collect="always"
       xlink:href="#linearGradient4430-7-9"
       id="linearGradient982"
       gradientUnits="userSpaceOnUse"
       x1="-51.300877"
       y1="-12.057004"
       x2="255.74338"
       y2="-12.057004" />
    <linearGradient
       inkscape:collect="always"
       xlink:href="#linearGradient4430-7-9"
       id="linearGradient984"
       gradientUnits="userSpaceOnUse"
       x1="-51.300877"
       y1="-12.057004"
       x2="255.74338"
       y2="-12.057004" />
    <linearGradient
       inkscape:collect="always"
       xlink:href="#linearGradient4430-7-9"
       id="linearGradient986"
       gradientUnits="userSpaceOnUse"
       x1="-51.300877"
       y1="-12.057004"
       x2="255.74338"
       y2="-12.057004" />
    <linearGradient
       inkscape:collect="always"
       xlink:href="#linearGradient4430-7-9"
       id="linearGradient988"
       gradientUnits="userSpaceOnUse"
       x1="-51.300877"
       y1="-12.057004"
       x2="255.74338"
       y2="-12.057004" />
    <linearGradient
       inkscape:collect="always"
       xlink:href="#linearGradient4430-7-9"
       id="linearGradient990"
       gradientUnits="userSpaceOnUse"
       x1="-51.300877"
       y1="-12.057004"
       x2="255.74338"
       y2="-12.057004" />
    <linearGradient
       inkscape:collect="always"
       xlink:href="#linearGradient4430-7-9"
       id="linearGradient992"
       gradientUnits="userSpaceOnUse"
       x1="-51.300877"
       y1="-12.057004"
       x2="255.74338"
       y2="-12.057004"
       gradientTransform="matrix(1.2184145,0,0,1.2184145,-26.025496,2.68019)" />
  </defs>
  <sodipodi:namedview
     pagecolor="#ffffff"
     bordercolor="#666666"
     borderopacity="1"
     objecttolerance="10"
     gridtolerance="10"
     guidetolerance="10"
     inkscape:pageopacity="0"
     inkscape:pageshadow="2"
     inkscape:window-width="1680"
     inkscape:window-height="1001"
     id="namedview4"
     showgrid="false"
     showguides="false"
     inkscape:zoom="1.3499087"
     inkscape:cx="318.21404"
     inkscape:cy="45.950675"
     inkscape:window-x="0"
     inkscape:window-y="25"
     inkscape:window-maximized="1"
     inkscape:current-layer="layer3"
     units="mm"
     fit-margin-top="5"
     fit-margin-left="5"
     fit-margin-right="5"
     fit-margin-bottom="5">
    <sodipodi:guide
       position="90.064843,108.83972"
       orientation="-0.70710678,0.70710678"
       id="guide4353"
       inkscape:locked="false" />
  </sodipodi:namedview>
  <g
     inkscape:groupmode="layer"
     id="layer7"
     inkscape:label="Groß"
     style="display:inline"
     transform="translate(90.690943,118.17594)">
    <g
       inkscape:groupmode="layer"
       id="layer12"
       inkscape:label="Neu"
       style="display:inline" />
    <g
       inkscape:groupmode="layer"
       id="layer3"
       inkscape:label="Venom"
       style="display:inline">
      <g
         id="g969"
         transform="matrix(6.8542065e-4,0.01601689,-0.02863162,4.0073352e-4,279.06082,-6.8860659)"
         style="display:inline;fill:url(#linearGradient958);stroke:none;fill-opacity:1.0">
        <path
           id="path967"
           d="m 4339,11590 c -3,0 -33,30 -65,68 l -21,-69 46,-55 -107,-121 c -59,-66 -171,-193 -250,-280 -342,-382 -530,-680 -646,-1020 -130,-382 -164,-807 -89,-1118 47,-198 133,-327 318,-477 55,-45 104,-84 108,-88 4,-4 -17,-46 -47,-94 -244,-388 -397,-881 -413,-1326 -13,-373 57,-665 217,-907 78,-118 155,-208 379,-447 194,-206 417,-466 448,-523 l 17,-31 -86,-99 C 3834,4640 3621,4309 3461,3932 2852.5457,2796.5931 3504.0628,1380.5186 4239.0029,1926.3904 4353.1255,2011.1542 4469.2596,2143.2252 4583,2331 c 236,364 319,545 352,766 71,468 -129,1260 -468,1853 l -65,114 51,58 c 168,188 203,231 256,308 110,160 182,337 217,535 28,153 26,515 -4,687 -51,300 -130,546 -256,803 -185,376 -409,655 -776,966 l -55,46 56,69 c 130,160 299,314 569,519 315,239 406,365 463,639 28,140 30,448 3,621 -24,154 -74,354 -121,480 -78,213 -233,490 -376,672 -27,35 -49,65 -49,67 0,2 30,44 66,93 z m 32,-151 22,-31 -49,7 c -27,4 -51,9 -53,11 -7,7 41,54 50,48 4,-2 18,-18 30,-35 z m -9,-103 c 66,-9 92,-17 102,-32 25,-33 127,-206 124,-209 -2,-2 -493,67 -526,74 -2,1 33,42 79,91 92,101 79,96 221,76 z m -17,-287 c 168,-23 293,-46 297,-52 13,-22 110,-268 106,-272 -4,-4 -937,130 -942,136 -5,5 51,74 141,177 47,54 59,62 82,58 14,-3 156,-24 316,-47 z m -56,-339 c 267,-39 486,-72 488,-74 7,-6 47,-196 42,-200 -8,-8 -1229,109 -1229,117 0,5 34,60 76,123 75,111 78,114 108,109 17,-3 249,-37 515,-75 z m -76,-299 c 339,-32 620,-60 623,-64 3,-3 8,-58 11,-122 l 6,-118 -54,7 c -30,3 -349,33 -709,67 -360,33 -655,61 -657,62 -2,3 57,132 85,185 18,34 28,42 50,42 15,-1 305,-27 645,-59 z m -88,-311 c 363,-33 675,-63 693,-66 31,-5 32,-6 32,-53 0,-45 -26,-221 -34,-229 -6,-5 -1476,175 -1483,181 -5,6 25,117 54,194 14,38 17,41 47,37 17,-2 328,-31 691,-64 z m -70,-336 c 396,-48 724,-90 728,-94 10,-9 -65,-157 -100,-197 l -28,-31 -689,84 c -379,46 -690,85 -692,87 -3,3 25,198 32,219 3,10 11,18 17,18 7,0 336,-39 732,-86 z m -125,-310 c 349,-41 641,-78 649,-80 10,-3 5,-14 -20,-40 -27,-29 -204,-178 -255,-216 -8,-6 -457,95 -1011,227 -22,5 -23,10 -23,95 0,65 3,90 13,90 6,0 298,-34 647,-76 z m -185,-294 c 237,-55 438,-103 448,-108 16,-6 1,-23 -90,-105 -59,-53 -115,-97 -123,-97 -8,0 -157,38 -330,83 l -314,82 -22,70 c -12,39 -25,96 -29,129 -7,54 -6,58 11,52 11,-3 213,-50 449,-106 z m -116,-300 c 130,-34 251,-66 269,-71 l 33,-11 -48,-51 c -39,-42 -139,-159 -150,-176 -5,-8 -147,116 -217,190 -68,72 -145,179 -129,179 4,0 113,-27 242,-60 z m 211,-588 c 84,-68 117,-100 109,-105 -15,-12 -394,-175 -398,-172 -10,11 181,345 197,345 4,0 45,-31 92,-68 z m 250,-227 64,-64 -35,-15 c -19,-8 -178,-78 -354,-156 -176,-78 -326,-144 -332,-147 -20,-8 -15,14 25,120 l 37,98 255,114 c 140,62 260,114 265,114 6,1 39,-28 75,-64 z m 184,-211 c 36,-48 66,-90 66,-94 0,-6 -929,-364 -980,-377 -18,-5 -18,-2 2,89 11,51 24,98 29,103 9,9 795,362 810,364 4,1 37,-38 73,-85 z m 174,-252 c 29,-49 52,-93 52,-98 0,-5 -84,-37 -187,-70 -104,-34 -369,-121 -590,-195 -221,-73 -404,-131 -407,-129 -5,5 11,170 17,176 4,4 1049,403 1057,404 3,0 29,-40 58,-88 z m 145,-279 c 57,-134 101,-252 96,-258 -11,-10 -1345,-363 -1351,-357 -9,9 -34,300 -26,307 5,5 1214,412 1229,414 3,1 27,-47 52,-106 z m 145,-420 c 28,-116 54,-274 47,-281 -5,-5 -297,-41 -1304,-160 l -73,-9 -14,34 c -17,40 -39,131 -33,137 3,3 1332,363 1350,365 3,1 15,-38 27,-86 z m 65,-465 c 4,-57 3,-128 -1,-158 l -7,-55 -575,-86 c -437,-66 -578,-84 -589,-75 -37,29 -200,301 -188,313 5,4 1281,159 1333,162 20,1 22,-5 27,-101 z m -27,-390 c -9,-52 -20,-99 -24,-105 -9,-14 -839,-206 -852,-198 -21,13 -200,228 -194,234 6,7 1077,169 1083,165 2,-2 -4,-45 -13,-96 z m -70,-244 c -19,-56 -81,-177 -128,-251 -29,-45 -48,-64 -71,-72 -64,-20 -306,-91 -311,-91 -3,0 -40,44 -83,98 -42,53 -95,116 -116,140 -22,23 -38,42 -36,43 40,11 755,175 757,174 1,-1 -4,-20 -12,-41 z m -284,-461 c -16,-21 -47,-58 -69,-82 l -40,-45 -30,45 c -17,24 -31,48 -32,53 -2,9 154,63 187,65 8,1 1,-15 -16,-36 z m -87,-364 c 8,-24 14,-19 -60,-60 l -60,-34 50,58 c 28,31 53,57 57,57 4,0 10,-9 13,-21 z m 73,-121 c 43,-70 111,-213 104,-220 -9,-8 -633,-181 -638,-176 -4,5 147,208 172,230 20,18 325,197 336,198 3,0 15,-15 26,-32 z m 183,-372 c 49,-115 90,-239 82,-246 -9,-7 -992,-104 -998,-98 -7,7 122,212 136,217 92,31 710,199 727,198 19,-2 29,-15 53,-71 z m 129,-365 c 26,-96 59,-236 56,-238 -5,-6 -1209,17 -1214,22 -4,3 10,38 30,78 l 36,73 393,38 c 217,21 446,44 509,51 186,20 178,21 190,-24 z m -128,-312 c 115,-1 183,-5 192,-13 17,-13 36,-159 36,-275 l 0,-83 -42,6 c -24,3 -333,38 -688,77 -355,39 -647,73 -649,75 -4,4 36,120 64,188 l 17,39 446,-7 c 246,-3 527,-7 624,-7 z m -472,-369 c 349,-38 650,-73 668,-75 27,-5 32,-10 32,-34 0,-74 -60,-335 -91,-392 -10,-19 69,-37 -767,170 -332,81 -605,151 -609,154 -6,6 2,41 39,180 l 21,78 36,-5 c 20,-3 322,-37 671,-76 z m -264,-384 c 274,-68 570,-141 657,-162 86,-21 162,-41 168,-45 11,-7 -35,-105 -123,-261 l -49,-87 -47,18 c -26,10 -294,112 -597,226 -302,114 -553,211 -558,215 -4,3 -1,52 8,108 8,56 15,104 15,107 0,11 41,1 526,-119 z m 59,-411 c 303,-114 551,-209 553,-210 3,-2 -216,-377 -227,-388 -5,-5 -207,125 -475,308 l -466,316 0,104 v 104 l 33,-13 c 17,-8 280,-107 582,-221 z m -135,-393 c 223,-151 408,-278 413,-281 -690.045,49.7599 -840.8518,33.0876 -873,578 0,16 -40,42 460,-297 z"
           inkscape:connector-curvature="0"
           sodipodi:nodetypes="cccccccccsccccccccscccccccccccccccccscccccsccccscccccscccccccscccccccccccccscsccccscccccscsccccccssccccsccccccccccccsccccscsccscccccscsccscccscccsccccsccccscccscccccccccccccccccccsccccccccccccccccscccccccccscccccccccccccsccssccccccsccccccccccccccccscccscccccccccc"
           style="fill:url(#linearGradient956);fill-opacity:1" />
      </g>
      <g
         aria-label="ANIMAL"
         transform="matrix(0.7196761,0.00639737,-0.00639737,0.7196761,1.1367764,7.6931475)"
         style="font-style:normal;font-variant:normal;font-weight:normal;font-stretch:normal;font-size:40.02570724px;line-height:1.25;font-family:'Latin Modern Sans Demi Cond';-inkscape-font-specification:'Latin Modern Sans Demi Cond';letter-spacing:0px;word-spacing:0px;display:inline;fill:url(#linearGradient990);fill-opacity:1;stroke:none;stroke-width:1.00064266"
         id="text1020">
        <path
           d="m -49.221914,-19.582466 h -16.666705 l -2.497604,6.388103 q -0.144093,0.384247 -0.52834,0.816525 -0.384246,0.384247 -1.344863,0.384247 h -1.777142 q -0.432277,0 -0.768493,-0.288185 -0.288186,-0.336216 -0.288186,-0.768494 0,-0.240154 0.192124,-0.672432 l 11.767558,-30.307466 q 0.240154,-0.528339 0.720463,-1.056679 0.480308,-0.528339 1.440925,-0.528339 h 2.881851 q 0.960617,0 1.440926,0.528339 0.480308,0.52834 0.720462,1.056679 l 11.719528,30.307466 q 0.192123,0.432278 0.192123,0.672432 0,0.432278 -0.336216,0.768494 -0.288185,0.288185 -0.720463,0.288185 h -1.777141 q -0.960617,0 -1.344864,-0.384247 -0.384247,-0.432278 -0.528339,-0.816525 z m -14.985625,-4.322776 h 13.304545 l -6.628257,-17.147013 z"
           style="font-style:normal;font-variant:normal;font-weight:normal;font-stretch:normal;font-size:48.03084946px;font-family:Rubik;-inkscape-font-specification:Rubik;fill:url(#linearGradient978);stroke-width:1.00064266"
           id="path890"
           inkscape:connector-curvature="0" />
        <path
           d="m -14.990927,-11.993591 q -0.672432,0 -1.15274,-0.432278 -0.432278,-0.480308 -0.768494,-1.008648 l -15.610026,-23.487085 v 23.631178 q 0,0.528339 -0.384247,0.912586 -0.384247,0.384247 -0.912586,0.384247 h -1.969265 q -0.528339,0 -0.912586,-0.384247 -0.384247,-0.384247 -0.384247,-0.912586 v -31.027929 q 0,-0.528339 0.384247,-0.912586 0.384247,-0.384247 0.912586,-0.384247 h 1.68108 q 0.672432,0 1.10471,0.480309 0.480308,0.432277 0.816524,0.960617 l 15.610026,23.487085 v -23.631178 q 0,-0.528339 0.384247,-0.912586 0.384247,-0.384247 0.912586,-0.384247 h 1.969265 q 0.528339,0 0.912586,0.384247 0.384247,0.384247 0.384247,0.912586 v 31.027929 q 0,0.528339 -0.384247,0.912586 -0.384247,0.384247 -0.912586,0.384247 z"
           style="font-style:normal;font-variant:normal;font-weight:normal;font-stretch:normal;font-size:48.03084946px;font-family:Rubik;-inkscape-font-specification:Rubik;fill:url(#linearGradient980);stroke-width:1.00064266"
           id="path892"
           inkscape:connector-curvature="0" />
        <path
           d="m -2.4856457,-11.993591 q -0.5283394,0 -0.9125862,-0.384247 -0.3842468,-0.384247 -0.3842468,-0.912586 v -31.027929 q 0,-0.528339 0.3842468,-0.912586 0.3842468,-0.384247 0.9125862,-0.384247 h 1.9692648 q 0.52833935,0 0.91258614,0.384247 0.3842468,0.384247 0.3842468,0.912586 v 31.027929 q 0,0.528339 -0.3842468,0.912586 -0.38424679,0.384247 -0.91258614,0.384247 z"
           style="font-style:normal;font-variant:normal;font-weight:normal;font-stretch:normal;font-size:48.03084946px;font-family:Rubik;-inkscape-font-specification:Rubik;fill:url(#linearGradient982);stroke-width:1.00064266"
           id="path894"
           inkscape:connector-curvature="0" />
        <path
           d="m 24.007121,-25.298137 9.702231,-18.780062 q 0.288185,-0.57637 0.768494,-1.056678 0.528339,-0.480309 1.344863,-0.480309 h 1.825173 q 0.528339,0 0.912586,0.384247 0.384247,0.384247 0.384247,0.912586 v 31.027929 q 0,0.528339 -0.384247,0.912586 -0.384247,0.384247 -0.912586,0.384247 h -1.969265 q -0.528339,0 -0.912586,-0.384247 -0.384247,-0.384247 -0.384247,-0.912586 v -22.766623 l -7.492813,14.457286 q -0.384246,0.720463 -0.816524,1.15274 -0.432278,0.384247 -1.15274,0.384247 h -1.825173 q -0.720462,0 -1.15274,-0.384247 -0.432278,-0.432277 -0.816524,-1.15274 l -7.492813,-14.457286 v 22.766623 q 0,0.528339 -0.384247,0.912586 -0.384247,0.384247 -0.912586,0.384247 h -1.969265 q -0.5283391,0 -0.9125859,-0.384247 -0.3842468,-0.384247 -0.3842468,-0.912586 v -31.027929 q 0,-0.528339 0.3842468,-0.912586 0.3842468,-0.384247 0.9125859,-0.384247 h 1.825173 q 0.816524,0 1.296832,0.480309 0.52834,0.480308 0.816525,1.056678 z"
           style="font-style:normal;font-variant:normal;font-weight:normal;font-stretch:normal;font-size:48.03084946px;font-family:Rubik;-inkscape-font-specification:Rubik;fill:url(#linearGradient984);stroke-width:1.00064266"
           id="path896"
           inkscape:connector-curvature="0" />
        <path
           d="M 67.75947,-19.582466 H 51.092765 l -2.497604,6.388103 q -0.144093,0.384247 -0.528339,0.816525 -0.384247,0.384247 -1.344864,0.384247 h -1.777142 q -0.432277,0 -0.768493,-0.288185 -0.288185,-0.336216 -0.288185,-0.768494 0,-0.240154 0.192123,-0.672432 l 11.767558,-30.307466 q 0.240155,-0.528339 0.720463,-1.056679 0.480309,-0.528339 1.440925,-0.528339 h 2.881851 q 0.960617,0 1.440926,0.528339 0.480308,0.52834 0.720463,1.056679 l 11.719527,30.307466 q 0.192123,0.432278 0.192123,0.672432 0,0.432278 -0.336216,0.768494 -0.288185,0.288185 -0.720462,0.288185 h -1.777142 q -0.960617,0 -1.344864,-0.384247 -0.384246,-0.432278 -0.528339,-0.816525 z M 52.773845,-23.905242 H 66.07839 l -6.628257,-17.147013 z"
           style="font-style:normal;font-variant:normal;font-weight:normal;font-stretch:normal;font-size:48.03084946px;font-family:Rubik;-inkscape-font-specification:Rubik;fill:url(#linearGradient986);stroke-width:1.00064266"
           id="path898"
           inkscape:connector-curvature="0" />
        <path
           d="m 100.74165,-16.316368 q 0.52834,0 0.91259,0.384247 0.38424,0.384247 0.38424,0.912586 v 1.729111 q 0,0.528339 -0.38424,0.912586 -0.38425,0.384247 -0.91259,0.384247 H 81.193096 q -0.52834,0 -0.912586,-0.384247 -0.384247,-0.384247 -0.384247,-0.912586 v -31.027929 q 0,-0.528339 0.384247,-0.912586 0.384246,-0.384247 0.912586,-0.384247 h 1.969265 q 0.528339,0 0.912586,0.384247 0.384246,0.384247 0.384246,0.912586 v 28.001985 z"
           style="font-style:normal;font-variant:normal;font-weight:normal;font-stretch:normal;font-size:48.03084946px;font-family:Rubik;-inkscape-font-specification:Rubik;fill:url(#linearGradient988);stroke-width:1.00064266"
           id="path900"
           inkscape:connector-curvature="0" />
      </g>
      <g
         aria-label="VENOMiCS"
         transform="rotate(0.50930246,-843.73372,3.7500159)"
         style="font-style:normal;font-variant:normal;font-weight:normal;font-stretch:normal;font-size:40.02570724px;line-height:1.25;font-family:'Latin Modern Sans Demi Cond';-inkscape-font-specification:'Latin Modern Sans Demi Cond';letter-spacing:0px;word-spacing:0px;display:inline;fill:url(#linearGradient976);fill-opacity:1;stroke:none;stroke-width:1.00064266"
         id="text1008">
        <path
           d="m -28.063494,-0.70711451 q 0.144093,-0.38424679 0.52834,-0.76849359 0.384246,-0.4322776 1.344863,-0.4322776 h 1.777142 q 0.432277,0 0.720463,0.3362159 0.336215,0.2881851 0.336215,0.72046275 0,0.24015424 -0.09606,0.48030849 L -33.827196,29.792475 q -0.288185,0.864555 -0.960617,1.392895 -0.624401,0.528339 -1.585018,0.528339 h -1.921234 q -0.960617,0 -1.585018,-0.528339 -0.624401,-0.52834 -0.912586,-1.392895 L -51.214363,-0.37089856 q -0.09606,-0.24015425 -0.09606,-0.48030849 0,-0.43227765 0.288185,-0.72046275 0.336216,-0.3362159 0.768494,-0.3362159 h 1.777141 q 0.960617,0 1.344864,0.4322776 0.384247,0.3842468 0.528339,0.76849359 l 9.269954,27.61773851 z"
           style="font-style:normal;font-variant:normal;font-weight:normal;font-stretch:normal;font-size:48.03084946px;font-family:Rubik;-inkscape-font-specification:Rubik;fill:url(#linearGradient960);stroke-width:1.00064266"
           id="path869"
           inkscape:connector-curvature="0" />
        <path
           d="m 3.0357303,27.390932 q 0.5283393,0 0.9125861,0.384247 0.3842468,0.384247 0.3842468,0.912586 v 1.729111 q 0,0.528339 -0.3842468,0.912586 -0.3842468,0.384247 -0.9125861,0.384247 H -16.368733 q -0.528339,0 -0.912586,-0.384247 -0.384247,-0.384247 -0.384247,-0.912586 V -0.61105281 q 0,-0.52833939 0.384247,-0.91258609 0.384247,-0.3842468 0.912586,-0.3842468 H 2.6514835 q 0.5283393,0 0.9125861,0.3842468 0.3842468,0.3842467 0.3842468,0.91258609 V 1.1180578 q 0,0.5283393 -0.3842468,0.9125861 Q 3.1798228,2.4148907 2.6514835,2.4148907 H -13.102635 V 12.5494 H 1.5948048 q 0.5283394,0 0.9125862,0.384247 0.3842467,0.384247 0.3842467,0.912586 v 1.72911 q 0,0.52834 -0.3842467,0.912587 -0.3842468,0.384246 -0.9125862,0.384246 H -13.102635 v 10.518756 z"
           style="font-style:normal;font-variant:normal;font-weight:normal;font-stretch:normal;font-size:48.03084946px;font-family:Rubik;-inkscape-font-specification:Rubik;fill:url(#linearGradient962);stroke-width:1.00064266"
           id="path871"
           inkscape:connector-curvature="0" />
        <path
           d="m 32.853132,31.713709 q -0.672432,0 -1.15274,-0.432278 -0.432278,-0.480308 -0.768494,-1.008648 L 15.321872,6.785698 v 23.631178 q 0,0.528339 -0.384247,0.912586 -0.384247,0.384247 -0.912586,0.384247 h -1.969265 q -0.528339,0 -0.912586,-0.384247 -0.384247,-0.384247 -0.384247,-0.912586 V -0.61105281 q 0,-0.52833939 0.384247,-0.91258609 0.384247,-0.3842468 0.912586,-0.3842468 h 1.68108 q 0.672432,0 1.10471,0.4803085 0.480308,0.4322776 0.816524,0.96061694 L 31.268114,23.020125 V -0.61105281 q 0,-0.52833939 0.384247,-0.91258609 0.384247,-0.3842468 0.912586,-0.3842468 h 1.969265 q 0.528339,0 0.912586,0.3842468 0.384247,0.3842467 0.384247,0.91258609 V 30.416876 q 0,0.528339 -0.384247,0.912586 -0.384247,0.384247 -0.912586,0.384247 z"
           style="font-style:normal;font-variant:normal;font-weight:normal;font-stretch:normal;font-size:48.03084946px;font-family:Rubik;-inkscape-font-specification:Rubik;fill:url(#linearGradient964);stroke-width:1.00064266"
           id="path873"
           inkscape:connector-curvature="0" />
        <path
           d="m 42.812774,10.628166 q 0.04803,-2.6897276 0.912587,-5.0432392 0.912586,-2.4015425 2.593665,-4.1306531 1.68108,-1.77714141 4.130653,-2.7857892 2.449574,-1.0566787 5.61961,-1.0566787 3.170036,0 5.619609,1.0566787 2.449574,1.00864779 4.130653,2.7857892 1.68108,1.7291106 2.545635,4.1306531 0.912586,2.3535116 0.960617,5.0432392 0.144093,4.274746 0,8.549491 -0.09606,2.689728 -1.008648,5.09127 -0.864555,2.353512 -2.545635,4.130653 -1.681079,1.777142 -4.130653,2.78579 -2.401542,1.008647 -5.571578,1.008647 -3.170036,0 -5.61961,-1.008647 -2.401542,-1.008648 -4.082622,-2.78579 -1.681079,-1.777141 -2.593666,-4.130653 -0.864555,-2.401542 -0.960617,-5.09127 -0.144092,-4.274745 0,-8.549491 z M 64.762873,10.86832 Q 64.666811,8.6108703 63.994379,6.9297906 63.369978,5.2487108 62.217238,4.1440013 61.064497,3.0392918 59.479479,2.5109524 57.942492,1.9345822 56.069289,1.9345822 q -1.873203,0 -3.458221,0.5763702 -1.536987,0.5283394 -2.689728,1.6330489 -1.15274,1.1047095 -1.825172,2.7857893 -0.672432,1.6810797 -0.720463,3.9385294 -0.09606,2.161388 -0.09606,4.034592 0,1.873203 0.09606,4.034591 0.04803,2.25745 0.720463,3.93853 0.672432,1.681079 1.825172,2.785789 1.152741,1.104709 2.689728,1.68108 1.585018,0.528339 3.458221,0.528339 1.873203,0 3.41019,-0.528339 1.585018,-0.576371 2.737759,-1.68108 1.15274,-1.10471 1.777141,-2.785789 0.672432,-1.68108 0.768494,-3.93853 0.09606,-2.161388 0.09606,-4.034591 0,-1.873204 -0.09606,-4.034592 z"
           style="font-style:normal;font-variant:normal;font-weight:normal;font-stretch:normal;font-size:48.03084946px;font-family:Rubik;-inkscape-font-specification:Rubik;fill:url(#linearGradient966);stroke-width:1.00064266"
           id="path875"
           inkscape:connector-curvature="0" />
        <path
           d="m 91.2699,18.409164 9.70223,-18.78006256 q 0.28819,-0.57637019 0.76849,-1.05667864 0.52834,-0.4803085 1.34487,-0.4803085 h 1.82517 q 0.52834,0 0.91259,0.3842468 0.38424,0.3842467 0.38424,0.91258609 V 30.416876 q 0,0.528339 -0.38424,0.912586 -0.38425,0.384247 -0.91259,0.384247 h -1.96926 q -0.52834,0 -0.91259,-0.384247 -0.38425,-0.384247 -0.38425,-0.912586 V 7.6502533 L 94.151751,22.107539 q -0.384247,0.720463 -0.816525,1.15274 -0.432277,0.384247 -1.15274,0.384247 h -1.825172 q -0.720463,0 -1.152741,-0.384247 -0.432277,-0.432277 -0.816524,-1.15274 L 80.895236,7.6502533 V 30.416876 q 0,0.528339 -0.384247,0.912586 -0.384246,0.384247 -0.912586,0.384247 h -1.969264 q -0.52834,0 -0.912587,-0.384247 -0.384246,-0.384247 -0.384246,-0.912586 V -0.61105281 q 0,-0.52833939 0.384246,-0.91258609 0.384247,-0.3842468 0.912587,-0.3842468 h 1.825172 q 0.816524,0 1.296833,0.4803085 0.528339,0.48030845 0.816524,1.05667864 z"
           style="font-style:normal;font-variant:normal;font-weight:normal;font-stretch:normal;font-size:48.03084946px;font-family:Rubik;-inkscape-font-specification:Rubik;fill:url(#linearGradient968);stroke-width:1.00064266"
           id="path877"
           inkscape:connector-curvature="0" />
        <path
           d="m 118.35555,30.416876 c -10e-4,0.352224 -0.12808,0.656421 -0.38424,0.912586 -0.25617,0.256165 -0.56036,0.384247 -0.91259,0.384247 h -1.77714 c -0.35223,0 -0.65642,-0.128082 -0.91259,-0.384247 -0.25617,-0.256165 -0.3853,-0.560362 -0.38425,-0.912586 l 0.05,-16.757598 c 0.001,-0.352225 0.12808,-0.656422 0.38425,-0.912586 0.25617,-0.256165 0.56036,-0.384247 0.91259,-0.384247 h 1.77714 c 0.35223,0 0.65642,0.128082 0.91259,0.384247 0.25616,0.256164 0.38529,0.560361 0.38424,0.912586 z m 0.53031,-23.1457012 c 0,0.3522263 -0.12808,0.6564217 -0.38425,0.9125862 -0.25616,0.2561645 -0.56035,0.3842468 -0.91258,0.3842468 h -2.73776 c -0.35223,0 -0.65642,-0.1280823 -0.91259,-0.3842468 -0.25616,-0.2561645 -0.38424,-0.5603599 -0.38424,-0.9125862 V 4.5334164 c 0,-0.3522262 0.12808,-0.6564216 0.38424,-0.9125861 0.25617,-0.2561645 0.56036,-0.3842468 0.91259,-0.3842468 h 2.73776 c 0.35223,0 0.65642,0.1280823 0.91258,0.3842468 0.25617,0.2561645 0.38425,0.5603599 0.38425,0.9125861 z"
           style="font-style:normal;font-variant:normal;font-weight:normal;font-stretch:normal;font-size:48.03084946px;font-family:Rubik;-inkscape-font-specification:Rubik;fill:url(#linearGradient970);stroke-width:1.00064266"
           id="path879"
           inkscape:connector-curvature="0"
           sodipodi:nodetypes="scsssssssscssscsscsscsscss" />
        <path
           d="m 129.36586,10.86832 q -0.0961,2.161388 -0.0961,4.034592 0,1.873203 0.0961,4.034591 0.1441,3.98656 2.40155,6.484165 2.30548,2.449573 6.58022,2.449573 2.30548,0 3.8905,-0.57637 1.58502,-0.57637 2.59367,-1.488957 1.05668,-0.912586 1.58501,-2.065326 0.57637,-1.200771 0.86456,-2.401543 0.0961,-0.528339 0.48031,-0.768493 0.38425,-0.288185 0.76849,-0.288185 h 2.20942 q 0.43228,0 0.72046,0.336216 0.33622,0.288185 0.33622,0.720462 -0.048,1.585018 -0.81652,3.458222 -0.7685,1.873203 -2.40155,3.554282 -1.58502,1.633049 -4.13065,2.737759 -2.4976,1.104709 -6.09992,1.104709 -3.122,0 -5.57158,-0.960617 -2.44957,-1.008647 -4.22671,-2.737758 -1.72911,-1.729111 -2.68973,-4.082622 -0.96062,-2.401543 -1.05668,-5.235363 -0.14409,-4.274745 0,-8.549491 0.0961,-2.7857893 1.05668,-5.1873318 0.96062,-2.4015424 2.68973,-4.130653 1.77714,-1.72911061 4.22671,-2.6897276 2.44958,-1.0086478 5.57158,-1.0086478 3.60232,0 6.09992,1.1047095 2.54563,1.10470954 4.13065,2.7857893 1.63305,1.6330489 2.40155,3.506252 0.76849,1.8732031 0.81652,3.4582211 0,0.4322777 -0.33622,0.7684936 -0.28818,0.2881851 -0.72046,0.2881851 h -2.20942 q -0.38424,0 -0.76849,-0.2401542 -0.38425,-0.2881851 -0.48031,-0.8165245 -0.28819,-1.2007712 -0.86456,-2.3535116 -0.52833,-1.2007712 -1.58501,-2.1133574 -1.00865,-0.9125861 -2.59367,-1.4889563 -1.58502,-0.5763702 -3.8905,-0.5763702 -4.27474,0 -6.58022,2.4976042 -2.25745,2.4495733 -2.40155,6.4361336 z"
           style="font-style:normal;font-variant:normal;font-weight:normal;font-stretch:normal;font-size:48.03084946px;font-family:Rubik;-inkscape-font-specification:Rubik;fill:url(#linearGradient972);stroke-width:1.00064266"
           id="path881"
           inkscape:connector-curvature="0" />
        <path
           d="m 168.46148,-2.3881942 q 2.92988,0 5.1393,0.9125861 2.25745,0.91258614 3.79444,2.25744993 1.58502,1.29683297 2.40154,2.83382007 0.81653,1.4889564 0.86456,2.6897276 0.048,0.4322777 -0.28819,0.7684936 -0.33621,0.2881851 -0.76849,0.2881851 h -1.96927 q -0.52834,0 -0.86455,-0.1921234 -0.28819,-0.1921234 -0.6244,-0.8645553 -0.24016,-0.4803085 -0.81653,-1.2007712 -0.52834,-0.7684936 -1.48895,-1.4409255 -0.91259,-0.7204627 -2.25745,-1.2007712 -1.34487,-0.5283394 -3.12201,-0.5283394 -1.34486,0 -2.59366,0.336216 -1.20078,0.2881851 -2.16139,0.9125861 -0.96062,0.624401 -1.53699,1.585018 -0.57637,0.9125862 -0.57637,2.1613883 0,1.248802 0.52834,2.1133573 0.57637,0.8645553 1.77714,1.5850181 1.2488,0.672432 3.12201,1.248802 1.8732,0.57637 4.56293,1.296833 2.73776,0.720463 4.61096,1.585018 1.92123,0.864555 3.122,1.969265 1.20078,1.056679 1.72911,2.497604 0.57637,1.392895 0.57637,3.170036 0,2.161388 -0.96061,3.986561 -0.91259,1.777141 -2.59367,3.073974 -1.68108,1.296833 -4.08262,2.017296 -2.35351,0.720462 -5.28339,0.720462 -2.78579,0 -5.1393,-0.816524 -2.35352,-0.816525 -4.0346,-2.113357 -1.68108,-1.296833 -2.68972,-2.881851 -0.96062,-1.585018 -1.00865,-3.122006 0,-0.432277 0.28818,-0.720462 0.33622,-0.336216 0.7685,-0.336216 h 1.96926 q 0.48031,0 0.81653,0.192123 0.38424,0.192123 0.67243,0.864555 0.28818,0.672432 0.86455,1.488957 0.6244,0.768493 1.63305,1.488956 1.00865,0.672432 2.44958,1.15274 1.44092,0.480309 3.41019,0.480309 1.68108,0 3.17003,-0.384247 1.53699,-0.384247 2.68973,-1.104709 1.15274,-0.720463 1.82517,-1.729111 0.67243,-1.008648 0.67243,-2.25745 0,-1.248802 -0.76849,-2.113357 -0.76849,-0.912586 -2.20942,-1.633049 -1.44092,-0.720463 -3.55428,-1.296833 -2.06533,-0.624401 -4.70702,-1.296833 -2.40155,-0.624401 -4.08263,-1.488956 -1.68108,-0.912587 -2.73776,-2.065327 -1.05667,-1.15274 -1.53698,-2.5456349 -0.43228,-1.3928947 -0.43228,-3.0259435 0,-1.7771415 0.72046,-3.4582212 0.72047,-1.6810797 2.11336,-2.97791267 1.44093,-1.29683293 3.55428,-2.06532653 2.16139,-0.8165244 5.04324,-0.8165244 z"
           style="font-style:normal;font-variant:normal;font-weight:normal;font-stretch:normal;font-size:48.03084946px;font-family:Rubik;-inkscape-font-specification:Rubik;fill:url(#linearGradient974);stroke-width:1.00064266"
           id="path883"
           inkscape:connector-curvature="0" />
      </g>
      <path
         style="fill:url(#linearGradient992);fill-opacity:1;fill-rule:evenodd;stroke:none;stroke-width:1.21841443px;stroke-linecap:butt;stroke-linejoin:miter;stroke-opacity:1"
         d="m 111.61558,3.7452301 c -2.02638,2.8197936 -2.61709,4.4844199 -2.9187,7.2269229 1.07143,6.410984 3.47076,6.379668 7.35232,6.40462 3.88154,0.02481 4.85484,-1.543365 5.79464,-3.39339 1.16308,-2.619043 0.96927,-4.7507658 0.8054,-6.7074901 -1.72341,-5.9706803 -3.99955,-8.5406539 -5.76816,-12.3251381 -1.51806,3.3244744 -2.2064,5.72318998 -5.2655,8.7944753 z"
         id="path4140"
         inkscape:connector-curvature="0"
         sodipodi:nodetypes="cczcccc" />
      <g
         id="g912"
         transform="matrix(-0.03303932,0,0,-0.03236321,311.91774,247.21095)"
         style="display:inline;fill:url(#linearGradient954);fill-opacity:0.9754601;stroke:none">
        <path
           id="path910"
           d="m 3988.5983,10735.74 c -126,-12 -250,-37 -374,-74.999 -156,-47.001 -200,-55.001 -375,-65.001 -154,-9 -156,-10 -235,-50 -166,-83 -516,-351.999 -728,-558.9989 -137,-134 -217,-235 -217,-273 0,-35 -61,-137 -104,-173 -23,-19 -51,-43 -62,-53 -32,-28 -80,-187 -139,-457 -62,-282 -67,-348 -35,-441 18,-52 21,-79 18,-229 -3,-163 -2,-172 19,-199 22,-27 22,-29 6,-64 -40,-89 -33,-641.4254 107,-993.4254 145,-366 162,-395 345,-574 135,-134 89.4372,-356.5769 110.4372,-444.5769 25.5504,-141.0248 229.0249,-434.0069 338.6837,-334.9899 l 465.6248,420.4386 c 137.7221,124.3568 -299.7457,778.1282 -299.7457,903.1282 0,272 -22,907.4254 -114,1104.4254 l -45,98 -33,-6 c -73,-12 -195,-22 -230,-17 -88,10 -70,52 57,127 50,29 107,70 127,90 42,42 216,331 252,422 14,33 30,89 36,124 12,74 13,209 3,209 -56,4 -257,41 -285,53 -43,18 -51,49 -18,67 13,7 124,11 321,10 h 302 l 201,134 c 110,75 235,152 276,172 90,44 117,43 295,-11 174,-54 345,-83 526,-91 l 156,-7 6,39 c 4,21 7,50 7,64 0,44 20,100 36,100 8,0 29,-21 47,-47 88,-127 121,-164 185,-206 118,-79 249,-115 517,-142 196,-20 262,-33 293,-60 35,-30 25,-51 -72,-153 -130,-138 -227,-296 -281,-461 -34,-103 6,-337 81,-483 69,-133 235,-277 357,-309 80,-22 80,-2 0,78 -112,110 -158,232 -157,413 1,114 15,169 60,227 43,57 72,66 249,74 231,12 289,29 378,111 52,48 135,179 168,267 37,99 11,200 -87,337 -69,97 -99,185 -153,442 -16,77 -38,156.9999 -49,178.9999 -45,88 -275,263.999 -477,365.999 -145,72 -262,106 -475,136 -164,24 -219,41 -285,90 -70,52.001 -80,57 -168,75 -199,41 -648,66 -848,46 z"
           inkscape:connector-curvature="0"
           style="fill:url(#linearGradient952);fill-opacity:0.9754601"
           sodipodi:nodetypes="cccccsccccccccccssscccccscccccccccccccsscccccccccccccccccccccc" />
      </g>
    </g>
  </g>
</svg>
